<svg width="80" height="80" viewBox="0 0 80 80" fill="none" xmlns="http://www.w3.org/2000/svg">
<path d="M0 12C0 5.37258 5.37258 0 12 0H68C74.6274 0 80 5.37258 80 12V68C80 74.6274 74.6274 80 68 80H12C5.37258 80 0 74.6274 0 68V12Z" fill="white" fill-opacity="0.15"/>
<path opacity="0.4" d="M47.3733 34.36C47.28 34.3466 47.1867 34.3466 47.0933 34.36C45.0267 34.2933 43.3867 32.6 43.3867 30.52C43.3867 28.4 45.1067 26.6666 47.24 26.6666C49.36 26.6666 51.0933 28.3866 51.0933 30.52C51.08 32.6 49.44 34.2933 47.3733 34.36Z" fill="white"/>
<path opacity="0.4" d="M51.72 43.6C50.2266 44.6 48.1333 44.9734 46.2 44.72C46.7066 43.6267 46.9733 42.4134 46.9866 41.1334C46.9866 39.8 46.6933 38.5334 46.1333 37.4267C48.1066 37.1601 50.2 37.5334 51.7066 38.5334C53.8133 39.92 53.8133 42.2 51.72 43.6Z" fill="white"/>
<path opacity="0.4" d="M32.5867 34.36C32.68 34.3466 32.7734 34.3466 32.8667 34.36C34.9334 34.2933 36.5734 32.6 36.5734 30.52C36.5734 28.4 34.8534 26.6666 32.72 26.6666C30.6 26.6666 28.8667 28.3866 28.8667 30.52C28.88 32.6 30.52 34.2933 32.5867 34.36Z" fill="white"/>
<path opacity="0.4" d="M32.7333 41.1334C32.7333 42.4267 33.0133 43.6534 33.52 44.7601C31.64 44.9601 29.68 44.5601 28.24 43.6134C26.1333 42.2134 26.1333 39.9334 28.24 38.5334C29.6666 37.5734 31.68 37.1867 33.5733 37.4001C33.0266 38.5201 32.7333 39.7867 32.7333 41.1334Z" fill="white"/>
<path d="M40.16 45.16C40.0534 45.1467 39.9334 45.1467 39.8134 45.16C37.36 45.08 35.4 43.0667 35.4 40.5867C35.4 38.0533 37.44 36 39.9867 36C42.52 36 44.5734 38.0533 44.5734 40.5867C44.5734 43.0667 42.6267 45.08 40.16 45.16Z" fill="white"/>
<path d="M35.8267 47.92C33.8133 49.2667 33.8133 51.48 35.8267 52.8134C38.12 54.3467 41.88 54.3467 44.1733 52.8134C46.1867 51.4667 46.1867 49.2534 44.1733 47.92C41.8933 46.3867 38.1333 46.3867 35.8267 47.92Z" fill="white"/>
</svg>
