<svg width="80" height="80" viewBox="0 0 80 80" fill="none" xmlns="http://www.w3.org/2000/svg">
<path d="M0 12C0 5.37258 5.37258 0 12 0H68C74.6274 0 80 5.37258 80 12V68C80 74.6274 74.6274 80 68 80H12C5.37258 80 0 74.6274 0 68V12Z" fill="white" fill-opacity="0.15"/>
<path opacity="0.4" d="M44 29.3334H36C32.32 29.3334 29.3333 32.32 29.3333 36V44C29.3333 47.68 32.32 50.6667 36 50.6667H44C47.68 50.6667 50.6666 47.68 50.6666 44V36C50.6666 32.32 47.68 29.3334 44 29.3334ZM47.0133 43.0134C47.0133 45.2267 45.2266 47.0134 43.0133 47.0134H36.9866C34.7733 47.0134 32.9866 45.2267 32.9866 43.0134V36.9867C32.9866 34.7734 34.7733 32.9867 36.9866 32.9867H43C45.2133 32.9867 47 34.7734 47 36.9867V43.0134H47.0133Z" fill="white"/>
<path d="M36.08 27.6666V29.3333H36C35.3334 29.3333 34.6934 29.4266 34.08 29.6133V27.6666C34.08 27.12 34.52 26.6666 35.08 26.6666C35.6267 26.6666 36.08 27.12 36.08 27.6666Z" fill="white"/>
<path d="M41 27.6666V29.3333H39V27.6666C39 27.12 39.4533 26.6666 40 26.6666C40.5467 26.6666 41 27.12 41 27.6666Z" fill="white"/>
<path d="M45.9334 27.6666V29.6133C45.32 29.4266 44.6667 29.3333 44 29.3333H43.9333V27.6666C43.9333 27.12 44.3867 26.6666 44.9333 26.6666C45.48 26.6666 45.9334 27.12 45.9334 27.6666Z" fill="white"/>
<path d="M53.3333 35.0667C53.3333 35.6267 52.8933 36.0667 52.3333 36.0667H50.6667V36C50.6667 35.3333 50.5733 34.68 50.3867 34.0667H52.3333C52.8933 34.0667 53.3333 34.52 53.3333 35.0667Z" fill="white"/>
<path d="M53.3334 40C53.3334 40.5467 52.8934 41 52.3334 41H50.6667V39H52.3334C52.8934 39 53.3334 39.44 53.3334 40Z" fill="white"/>
<path d="M53.3333 44.9333C53.3333 45.48 52.8933 45.9334 52.3333 45.9334H50.3867C50.5733 45.32 50.6667 44.6667 50.6667 44V43.9333H52.3333C52.8933 43.9333 53.3333 44.3733 53.3333 44.9333Z" fill="white"/>
<path d="M45.9334 50.3867V52.3334C45.9334 52.8801 45.48 53.3334 44.9333 53.3334C44.3867 53.3334 43.9333 52.8801 43.9333 52.3334V50.6667H44C44.6667 50.6667 45.32 50.5734 45.9334 50.3867Z" fill="white"/>
<path d="M41.0133 50.6666V52.3333C41.0133 52.88 40.56 53.3333 40.0133 53.3333C39.4533 53.3333 39.0133 52.88 39.0133 52.3333V50.6666H41.0133Z" fill="white"/>
<path d="M36.08 50.6667V52.3334C36.08 52.8801 35.6267 53.3334 35.08 53.3334C34.52 53.3334 34.08 52.8801 34.08 52.3334V50.3867C34.6934 50.5734 35.3334 50.6667 36 50.6667H36.08Z" fill="white"/>
<path d="M29.6134 34.0667C29.4267 34.68 29.3334 35.3333 29.3334 36V36.0667H27.6667C27.12 36.0667 26.6667 35.6267 26.6667 35.0667C26.6667 34.52 27.12 34.0667 27.6667 34.0667H29.6134Z" fill="white"/>
<path d="M29.3334 39V41H27.6667C27.12 41 26.6667 40.5467 26.6667 40C26.6667 39.44 27.12 39 27.6667 39H29.3334Z" fill="white"/>
<path d="M29.6134 45.9334H27.6667C27.12 45.9334 26.6667 45.48 26.6667 44.9333C26.6667 44.3733 27.12 43.9333 27.6667 43.9333H29.3334V44C29.3334 44.6667 29.4267 45.32 29.6134 45.9334Z" fill="white"/>
<path d="M47.0134 36.9867V43C47.0134 45.2134 45.2267 47 43.0134 47H36.9867C34.7734 47 32.9867 45.2134 32.9867 43V36.9867C32.9867 34.7734 34.7734 32.9867 36.9867 32.9867H43C45.2134 32.9867 47.0134 34.7867 47.0134 36.9867Z" fill="white"/>
</svg>
