<svg width="80" height="80" viewBox="0 0 80 80" fill="none" xmlns="http://www.w3.org/2000/svg">
<path d="M0 12C0 5.37258 5.37258 0 12 0H68C74.6274 0 80 5.37258 80 12V68C80 74.6274 74.6274 80 68 80H12C5.37258 80 0 74.6274 0 68V12Z" fill="white" fill-opacity="0.15"/>
<path d="M38.8669 30.9203L37.8269 29.8803C37.2003 29.2536 37.2003 28.2403 37.8269 27.6137L38.8669 26.5736C39.4936 25.947 40.5069 25.947 41.1336 26.5736L42.1736 27.6137C42.8003 28.2403 42.8003 29.2536 42.1736 29.8803L41.1336 30.9203C40.5069 31.547 39.4936 31.547 38.8669 30.9203Z" fill="white"/>
<path d="M39.9998 31.8802C39.4664 31.8802 38.9197 31.6803 38.5197 31.2669L37.4798 30.2269C36.6664 29.4136 36.6664 28.0802 37.4798 27.2536L38.5197 26.2135C39.3064 25.4135 40.6931 25.4269 41.4931 26.2135L42.5331 27.2536C43.3464 28.0669 43.3464 29.4002 42.5331 30.2269L41.4931 31.2669C41.0798 31.6803 40.5331 31.8802 39.9998 31.8802ZM39.9998 26.6136C39.7198 26.6136 39.4397 26.7203 39.2264 26.9336L38.1864 27.9736C37.7597 28.4002 37.7597 29.1069 38.1864 29.5336L39.2264 30.5736C39.6531 31.0002 40.3464 31.0002 40.7864 30.5736L41.8264 29.5336C42.2531 29.1069 42.2531 28.4136 41.8264 27.9736L40.7864 26.9336C40.5597 26.7203 40.2798 26.6136 39.9998 26.6136Z" fill="white"/>
<path d="M49.9335 37.0801H51.4002C52.2802 37.0801 53.0002 37.8001 53.0002 38.6801V40.1467C53.0002 41.0267 52.2802 41.7467 51.4002 41.7467H49.9335C49.0535 41.7467 48.3335 41.0267 48.3335 40.1467V38.6801C48.3335 37.8001 49.0535 37.0801 49.9335 37.0801Z" fill="white"/>
<path d="M51.4001 42.2533H49.9334C48.7734 42.2533 47.8268 41.3066 47.8268 40.1466V38.6799C47.8268 37.5199 48.7734 36.5732 49.9334 36.5732H51.4001C52.5601 36.5732 53.5068 37.5199 53.5068 38.6799V40.1466C53.4934 41.3066 52.5601 42.2533 51.4001 42.2533ZM49.9334 37.5866C49.3201 37.5866 48.8268 38.0799 48.8268 38.6933V40.1599C48.8268 40.7732 49.3201 41.2666 49.9334 41.2666H51.4001C52.0134 41.2666 52.5068 40.7732 52.5068 40.1599V38.6933C52.5068 38.0799 52.0134 37.5866 51.4001 37.5866H49.9334Z" fill="white"/>
<path d="M30.0665 37.0801H28.5999C27.7199 37.0801 26.9999 37.8001 26.9999 38.6801V40.1467C26.9999 41.0267 27.7199 41.7467 28.5999 41.7467H30.0665C30.9465 41.7467 31.6665 41.0267 31.6665 40.1467V38.6801C31.6665 37.8001 30.9465 37.0801 30.0665 37.0801Z" fill="white"/>
<path d="M30.0669 42.2533H28.6002C27.4402 42.2533 26.4935 41.3066 26.4935 40.1466V38.6799C26.4935 37.5199 27.4402 36.5732 28.6002 36.5732H30.0669C31.2269 36.5732 32.1735 37.5199 32.1735 38.6799V40.1466C32.1602 41.3066 31.2269 42.2533 30.0669 42.2533ZM28.6002 37.5866C27.9869 37.5866 27.4935 38.0799 27.4935 38.6933V40.1599C27.4935 40.7732 27.9869 41.2666 28.6002 41.2666H30.0669C30.6802 41.2666 31.1735 40.7732 31.1735 40.1599V38.6933C31.1735 38.0799 30.6802 37.5866 30.0669 37.5866H28.6002Z" fill="white"/>
<path fill-rule="evenodd" clip-rule="evenodd" d="M40.9466 29.6929C41.3371 29.3024 41.9703 29.3024 42.3608 29.6929L49.4275 36.7596C49.818 37.1501 49.818 37.7833 49.4275 38.1738C49.0369 38.5643 48.4038 38.5643 48.0133 38.1738L40.9466 31.1071C40.5561 30.7166 40.5561 30.0834 40.9466 29.6929Z" fill="white"/>
<path fill-rule="evenodd" clip-rule="evenodd" d="M39.0537 29.6929C39.4442 30.0834 39.4442 30.7166 39.0537 31.1071L31.987 38.1738C31.5965 38.5643 30.9633 38.5643 30.5728 38.1738C30.1823 37.7833 30.1823 37.1501 30.5728 36.7596L37.6395 29.6929C38.03 29.3024 38.6632 29.3024 39.0537 29.6929Z" fill="white"/>
<path d="M41.6797 53.3466H38.2664C37.0397 53.3466 36.133 52.3598 36.3597 51.2932L36.9197 48.8265H43.0397L43.5997 51.2932C43.853 52.4265 42.9864 53.3466 41.6797 53.3466Z" fill="white"/>
<path opacity="0.4" d="M45.3867 46.7331L43.0267 48.8265H36.9067L34.5467 46.7331C33.1734 45.6131 33.1734 44.7465 34.2134 43.4265L38.3734 38.1732C38.6667 37.8132 39 37.5598 39.36 37.4398C39.7467 37.3065 40.1734 37.3065 40.56 37.4398C40.92 37.5732 41.2534 37.8132 41.5467 38.1732L45.7067 43.4265C46.76 44.7465 46.7067 45.5731 45.3867 46.7331Z" fill="white"/>
</svg>
