<svg width="48" height="48" viewBox="0 0 48 48" fill="none" xmlns="http://www.w3.org/2000/svg">
<path opacity="0.4" d="M30 8.00012H18C12.48 8.00012 8 12.4801 8 18.0001V30.0001C8 35.5201 12.48 40.0001 18 40.0001H30C35.52 40.0001 40 35.5201 40 30.0001V18.0001C40 12.4801 35.52 8.00012 30 8.00012ZM34.52 28.5201C34.52 31.8401 31.84 34.5201 28.52 34.5201H19.48C16.16 34.5201 13.48 31.8401 13.48 28.5201V19.4801C13.48 16.1601 16.16 13.4801 19.48 13.4801H28.5C31.82 13.4801 34.5 16.1601 34.5 19.4801V28.5201H34.52Z" fill="#1F48FF"/>
<path d="M18.1201 5.50012V8.00012H18.0001C17.0001 8.00012 16.0401 8.14012 15.1201 8.42012V5.50012C15.1201 4.68012 15.7801 4.00012 16.6201 4.00012C17.4401 4.00012 18.1201 4.68012 18.1201 5.50012Z" fill="#1F48FF"/>
<path d="M25.5 5.50012V8.00012H22.5V5.50012C22.5 4.68012 23.18 4.00012 24 4.00012C24.82 4.00012 25.5 4.68012 25.5 5.50012Z" fill="#1F48FF"/>
<path d="M32.8999 5.50012V8.42012C31.9799 8.14012 30.9999 8.00012 29.9999 8.00012H29.8999V5.50012C29.8999 4.68012 30.5799 4.00012 31.3999 4.00012C32.2199 4.00012 32.8999 4.68012 32.8999 5.50012Z" fill="#1F48FF"/>
<path d="M44.0001 16.6001C44.0001 17.4401 43.3401 18.1001 42.5001 18.1001H40.0001V18.0001C40.0001 17.0001 39.8601 16.0201 39.5801 15.1001H42.5001C43.3401 15.1001 44.0001 15.7801 44.0001 16.6001Z" fill="#1F48FF"/>
<path d="M44 24C44 24.82 43.34 25.5 42.5 25.5H40V22.5H42.5C43.34 22.5 44 23.16 44 24Z" fill="#1F48FF"/>
<path d="M44.0001 31.4001C44.0001 32.2201 43.3401 32.9001 42.5001 32.9001H39.5801C39.8601 31.9801 40.0001 31.0001 40.0001 30.0001V29.9001H42.5001C43.3401 29.9001 44.0001 30.5601 44.0001 31.4001Z" fill="#1F48FF"/>
<path d="M32.8999 39.5801V42.5001C32.8999 43.3201 32.2199 44.0001 31.3999 44.0001C30.5799 44.0001 29.8999 43.3201 29.8999 42.5001V40.0001H29.9999C30.9999 40.0001 31.9799 39.8601 32.8999 39.5801Z" fill="#1F48FF"/>
<path d="M25.52 40V42.5C25.52 43.32 24.84 44 24.02 44C23.18 44 22.52 43.32 22.52 42.5V40H25.52Z" fill="#1F48FF"/>
<path d="M18.1201 40.0001V42.5001C18.1201 43.3201 17.4401 44.0001 16.6201 44.0001C15.7801 44.0001 15.1201 43.3201 15.1201 42.5001V39.5801C16.0401 39.8601 17.0001 40.0001 18.0001 40.0001H18.1201Z" fill="#1F48FF"/>
<path d="M8.42 15.1001C8.14 16.0201 8 17.0001 8 18.0001V18.1001H5.5C4.68 18.1001 4 17.4401 4 16.6001C4 15.7801 4.68 15.1001 5.5 15.1001H8.42Z" fill="#1F48FF"/>
<path d="M8 22.5V25.5H5.5C4.68 25.5 4 24.82 4 24C4 23.16 4.68 22.5 5.5 22.5H8Z" fill="#1F48FF"/>
<path d="M8.42 32.9001H5.5C4.68 32.9001 4 32.2201 4 31.4001C4 30.5601 4.68 29.9001 5.5 29.9001H8V30.0001C8 31.0001 8.14 31.9801 8.42 32.9001Z" fill="#1F48FF"/>
<path d="M34.52 19.4801V28.5001C34.52 31.8201 31.84 34.5001 28.52 34.5001H19.48C16.16 34.5001 13.48 31.8201 13.48 28.5001V19.4801C13.48 16.1601 16.16 13.4801 19.48 13.4801H28.5C31.82 13.4801 34.52 16.1801 34.52 19.4801Z" fill="#1F48FF"/>
</svg>
