<svg width="48" height="48" viewBox="0 0 48 48" fill="none" xmlns="http://www.w3.org/2000/svg">
<path d="M22.3016 10.3813L20.7416 8.82127C19.8016 7.88127 19.8016 6.36137 20.7416 5.42137L22.3016 3.86131C23.2416 2.92131 24.7616 2.92131 25.7016 3.86131L27.2616 5.42137C28.2016 6.36137 28.2016 7.88127 27.2616 8.82127L25.7016 10.3813C24.7616 11.3213 23.2416 11.3213 22.3016 10.3813Z" fill="#1F48FF"/>
<path d="M23.9985 11.8196C23.1985 11.8196 22.3785 11.5197 21.7785 10.8997L20.2185 9.33966C18.9985 8.11966 18.9985 6.1197 20.2185 4.8797L21.7785 3.31964C22.9585 2.11964 25.0385 2.13964 26.2385 3.31964L27.7985 4.8797C29.0185 6.0997 29.0185 8.09966 27.7985 9.33966L26.2385 10.8997C25.6185 11.5197 24.7985 11.8196 23.9985 11.8196ZM23.9985 3.91974C23.5785 3.91974 23.1585 4.07972 22.8385 4.39972L21.2785 5.95965C20.6385 6.59965 20.6385 7.65974 21.2785 8.29974L22.8385 9.85968C23.4785 10.4997 24.5185 10.4997 25.1785 9.85968L26.7385 8.29974C27.3785 7.65974 27.3785 6.61965 26.7385 5.95965L25.1785 4.39972C24.8385 4.07972 24.4185 3.91974 23.9985 3.91974Z" fill="#1F48FF"/>
<path d="M38.9015 19.6192H41.1015C42.4215 19.6192 43.5015 20.6992 43.5015 22.0192V24.2192C43.5015 25.5392 42.4215 26.6192 41.1015 26.6192H38.9015C37.5815 26.6192 36.5015 25.5392 36.5015 24.2192V22.0192C36.5015 20.6992 37.5815 19.6192 38.9015 19.6192Z" fill="#1F48FF"/>
<path d="M41.101 27.3804H38.901C37.161 27.3804 35.741 25.9603 35.741 24.2203V22.0204C35.741 20.2804 37.161 18.8604 38.901 18.8604H41.101C42.841 18.8604 44.261 20.2804 44.261 22.0204V24.2203C44.241 25.9603 42.841 27.3804 41.101 27.3804ZM38.901 20.3804C37.981 20.3804 37.241 21.1204 37.241 22.0404V24.2404C37.241 25.1604 37.981 25.9004 38.901 25.9004H41.101C42.021 25.9004 42.761 25.1604 42.761 24.2404V22.0404C42.761 21.1204 42.021 20.3804 41.101 20.3804H38.901Z" fill="#1F48FF"/>
<path d="M9.09976 19.6192H6.89975C5.57975 19.6192 4.49976 20.6992 4.49976 22.0192V24.2192C4.49976 25.5392 5.57975 26.6192 6.89975 26.6192H9.09976C10.4198 26.6192 11.4998 25.5392 11.4998 24.2192V22.0192C11.4998 20.6992 10.4198 19.6192 9.09976 19.6192Z" fill="#1F48FF"/>
<path d="M9.0995 27.3804H6.89949C5.15949 27.3804 3.7395 25.9603 3.7395 24.2203V22.0204C3.7395 20.2804 5.15949 18.8604 6.89949 18.8604H9.0995C10.8395 18.8604 12.2595 20.2804 12.2595 22.0204V24.2203C12.2395 25.9603 10.8395 27.3804 9.0995 27.3804ZM6.89949 20.3804C5.97949 20.3804 5.2395 21.1204 5.2395 22.0404V24.2404C5.2395 25.1604 5.97949 25.9004 6.89949 25.9004H9.0995C10.0195 25.9004 10.7595 25.1604 10.7595 24.2404V22.0404C10.7595 21.1204 10.0195 20.3804 9.0995 20.3804H6.89949Z" fill="#1F48FF"/>
<path fill-rule="evenodd" clip-rule="evenodd" d="M25.421 8.53865C26.0068 7.95286 26.9566 7.95286 27.5423 8.53864L38.1424 19.1386C38.7281 19.7244 38.7281 20.6742 38.1424 21.2599C37.5566 21.8457 36.6068 21.8457 36.021 21.2599L25.421 10.66C24.8352 10.0742 24.8352 9.12443 25.421 8.53865Z" fill="#1F48FF"/>
<path fill-rule="evenodd" clip-rule="evenodd" d="M22.5813 8.53865C23.1671 9.12443 23.1671 10.0742 22.5813 10.66L11.9813 21.2599C11.3955 21.8457 10.4458 21.8457 9.85999 21.2599C9.27421 20.6742 9.27421 19.7244 9.86 19.1386L20.46 8.53864C21.0458 7.95286 21.9955 7.95286 22.5813 8.53865Z" fill="#1F48FF"/>
<path d="M26.5213 44.0206H21.4013C19.5613 44.0206 18.2013 42.5405 18.5413 40.9405L19.3813 37.2405H28.5613L29.4013 40.9405C29.7813 42.6405 28.4813 44.0206 26.5213 44.0206Z" fill="#1F48FF"/>
<path opacity="0.4" d="M32.0791 34.0997L28.5391 37.2397H19.3591L15.8191 34.0997C13.7591 32.4197 13.7591 31.1197 15.3191 29.1397L21.5591 21.2597C21.9991 20.7197 22.4991 20.3398 23.0391 20.1598C23.6191 19.9598 24.2591 19.9598 24.8391 20.1598C25.3791 20.3598 25.8791 20.7197 26.3191 21.2597L32.5591 29.1397C34.1391 31.1197 34.0591 32.3597 32.0791 34.0997Z" fill="#1F48FF"/>
</svg>
