<svg width="48" height="48" viewBox="0 0 48 48" fill="none" xmlns="http://www.w3.org/2000/svg">
<path opacity="0.4" d="M35.0601 15.54C34.9201 15.52 34.7801 15.52 34.6401 15.54C31.5401 15.44 29.0801 12.9 29.0801 9.78C29.0801 6.6 31.6601 4 34.8601 4C38.0401 4 40.6401 6.58 40.6401 9.78C40.6201 12.9 38.1601 15.44 35.0601 15.54Z" fill="#1F48FF"/>
<path opacity="0.4" d="M41.58 29.4001C39.34 30.9001 36.2 31.46 33.3 31.08C34.06 29.44 34.46 27.6201 34.48 25.7001C34.48 23.7001 34.04 21.8001 33.2 20.1401C36.16 19.7401 39.3 20.3001 41.56 21.8001C44.72 23.8801 44.72 27.3001 41.58 29.4001Z" fill="#1F48FF"/>
<path opacity="0.4" d="M12.88 15.54C13.02 15.52 13.16 15.52 13.3 15.54C16.4 15.44 18.86 12.9 18.86 9.78C18.86 6.6 16.28 4 13.08 4C9.90005 4 7.30005 6.58 7.30005 9.78C7.32005 12.9 9.78004 15.44 12.88 15.54Z" fill="#1F48FF"/>
<path opacity="0.4" d="M13.1 25.7C13.1 27.64 13.52 29.48 14.28 31.14C11.46 31.44 8.51999 30.84 6.35999 29.42C3.19999 27.32 3.19999 23.8999 6.35999 21.7999C8.49999 20.3599 11.52 19.78 14.36 20.1C13.54 21.78 13.1 23.68 13.1 25.7Z" fill="#1F48FF"/>
<path d="M24.2401 31.74C24.0801 31.72 23.9001 31.72 23.7201 31.74C20.0401 31.62 17.1001 28.6 17.1001 24.88C17.1001 21.08 20.1601 18 23.9801 18C27.7801 18 30.8601 21.08 30.8601 24.88C30.8601 28.6 27.9401 31.62 24.2401 31.74Z" fill="#1F48FF"/>
<path d="M17.7401 35.88C14.7201 37.9 14.7201 41.22 17.7401 43.22C21.1801 45.52 26.8201 45.52 30.2601 43.22C33.2801 41.2 33.2801 37.88 30.2601 35.88C26.8401 33.58 21.2001 33.58 17.7401 35.88Z" fill="#1F48FF"/>
</svg>
