<svg width="24" height="24" viewBox="0 0 24 24" fill="none" xmlns="http://www.w3.org/2000/svg">
<path d="M15.39 5.21L16.8 8.03C16.99 8.42 17.5 8.79 17.93 8.87L20.48 9.29C22.11 9.56 22.49 10.74 21.32 11.92L19.33 13.91C19 14.24 18.81 14.89 18.92 15.36L19.49 17.82C19.94 19.76 18.9 20.52 17.19 19.5L14.8 18.08C14.37 17.82 13.65 17.82 13.22 18.08L10.83 19.5C9.12 20.51 8.08001 19.76 8.53001 17.82L9.10002 15.36C9.21002 14.9 9.02001 14.25 8.69001 13.91L6.70002 11.92C5.53002 10.75 5.91002 9.57 7.54002 9.29L10.09 8.87C10.52 8.8 11.03 8.42 11.22 8.03L12.63 5.21C13.38 3.68 14.62 3.68 15.39 5.21Z" fill="white"/>
<path opacity="0.4" d="M8 5.75H2C1.59 5.75 1.25 5.41 1.25 5C1.25 4.59 1.59 4.25 2 4.25H8C8.41 4.25 8.75 4.59 8.75 5C8.75 5.41 8.41 5.75 8 5.75Z" fill="white"/>
<path opacity="0.4" d="M5 19.75H2C1.59 19.75 1.25 19.41 1.25 19C1.25 18.59 1.59 18.25 2 18.25H5C5.41 18.25 5.75 18.59 5.75 19C5.75 19.41 5.41 19.75 5 19.75Z" fill="white"/>
<path opacity="0.4" d="M3 12.75H2C1.59 12.75 1.25 12.41 1.25 12C1.25 11.59 1.59 11.25 2 11.25H3C3.41 11.25 3.75 11.59 3.75 12C3.75 12.41 3.41 12.75 3 12.75Z" fill="white"/>
</svg>
