<svg width="31" height="48" viewBox="0 0 31 48" fill="none" xmlns="http://www.w3.org/2000/svg">
<g clip-path="url(#clip0_272_5316)">
<path d="M7.75 47.5002C12.028 47.5002 15.5 43.9908 15.5 39.6668V31.8335H7.75C3.472 31.8335 0 35.3428 0 39.6668C0 43.9908 3.472 47.5002 7.75 47.5002Z" fill="#0ACF83"/>
<path d="M0 23.9998C0 19.6758 3.472 16.1665 7.75 16.1665H15.5V31.8332H7.75C3.472 31.8332 0 28.3238 0 23.9998Z" fill="#A259FF"/>
<path d="M0 8.33333C0 4.00933 3.472 0.5 7.75 0.5H15.5V16.1667H7.75C3.472 16.1667 0 12.6573 0 8.33333Z" fill="#F24E1E"/>
<path d="M15.5 0.5H23.25C27.528 0.5 31 4.00933 31 8.33333C31 12.6573 27.528 16.1667 23.25 16.1667H15.5V0.5Z" fill="#FF7262"/>
<path d="M31 23.9998C31 28.3238 27.528 31.8332 23.25 31.8332C18.972 31.8332 15.5 28.3238 15.5 23.9998C15.5 19.6758 18.972 16.1665 23.25 16.1665C27.528 16.1665 31 19.6758 31 23.9998Z" fill="#1ABCFE"/>
</g>
<defs>
<clipPath id="clip0_272_5316">
<rect width="31" height="47" fill="white" transform="translate(0 0.5)"/>
</clipPath>
</defs>
</svg>
