<svg width="53" height="48" viewBox="0 0 53 48" fill="none" xmlns="http://www.w3.org/2000/svg">
<mask id="mask0_272_5141" style="mask-type:luminance" maskUnits="userSpaceOnUse" x="0" y="-1" width="53" height="68">
<path d="M0.0918579 -0.00683594H52.9277V66.182H0.0918579V-0.00683594Z" fill="white"/>
</mask>
<g mask="url(#mask0_272_5141)">
<path d="M18.1811 6.04483C18.6865 4.71174 19.3814 3.48445 20.4133 2.48993C24.5408 -1.55166 31.3637 -0.535971 34.1645 4.54246C36.2704 8.3936 38.5026 12.1601 40.6716 15.9689L51.5378 34.9707C54.5492 40.2819 51.2851 46.9896 45.3045 47.8995C41.6403 48.4497 38.2078 46.7569 36.3125 43.4559L26.7519 26.7817C26.6888 26.6548 26.6045 26.549 26.5203 26.4432C26.1833 26.1681 26.0359 25.7661 25.8254 25.4063L18.7918 13.1546C17.9705 11.7157 17.5915 10.1499 17.6336 8.4994C17.6968 7.65299 17.8021 6.80659 18.1811 6.04483Z" fill="#3C8BD9"/>
</g>
<mask id="mask1_272_5141" style="mask-type:luminance" maskUnits="userSpaceOnUse" x="0" y="-1" width="53" height="68">
<path d="M0.0918579 -0.00683594H52.9277V66.182H0.0918579V-0.00683594Z" fill="white"/>
</mask>
<g mask="url(#mask1_272_5141)">
<path d="M18.1811 6.04492C17.9916 6.80669 17.8231 7.56845 17.781 8.37253C17.7178 10.15 18.1601 11.8005 19.0445 13.3452L25.9728 25.3853C26.1834 25.745 26.3518 26.1047 26.5624 26.4433L22.7508 33.0241L17.423 42.2499C17.3388 42.2499 17.3177 42.2076 17.2967 42.1441C17.2756 41.9748 17.3388 41.8267 17.3809 41.6574C18.2443 38.4834 17.5283 35.6691 15.3593 33.2568C14.0326 31.7968 12.3479 30.9715 10.4105 30.6965C7.8835 30.3367 5.6513 30.9927 3.65074 32.5797C3.29275 32.8548 3.0611 33.2568 2.63993 33.4684C2.5557 33.4684 2.51358 33.4261 2.49252 33.3626L5.50389 28.0938L18.0337 6.27768C18.0758 6.19304 18.139 6.12956 18.1811 6.04492Z" fill="#FABC04"/>
</g>
<mask id="mask2_272_5141" style="mask-type:luminance" maskUnits="userSpaceOnUse" x="0" y="-1" width="53" height="68">
<path d="M0.0918579 -0.00683594H52.9277V66.182H0.0918579V-0.00683594Z" fill="white"/>
</mask>
<g mask="url(#mask2_272_5141)">
<path d="M2.57677 33.4262L3.7771 32.3471C8.89432 28.2843 16.5807 31.2256 17.6968 37.6583C17.9705 39.2029 17.8231 40.6842 17.3598 42.1654C17.3388 42.2923 17.3177 42.3981 17.2756 42.5251C17.0861 42.8636 16.9176 43.2234 16.707 43.5619C14.8328 46.6725 12.0742 48.2172 8.45209 47.9844C4.30356 47.6882 1.03949 44.5565 0.470914 40.4091C0.197153 38.3989 0.597265 36.5156 1.62913 34.7805C1.83972 34.3996 2.09242 34.061 2.32406 33.6802C2.42936 33.5955 2.38724 33.4262 2.57677 33.4262Z" fill="#34A852"/>
</g>
<mask id="mask3_272_5141" style="mask-type:luminance" maskUnits="userSpaceOnUse" x="0" y="-1" width="53" height="68">
<path d="M0.0918579 -0.00683594H52.9277V66.182H0.0918579V-0.00683594Z" fill="white"/>
</mask>
<g mask="url(#mask3_272_5141)">
<path d="M2.57677 33.4259C2.49254 33.5106 2.49254 33.6587 2.34513 33.6799C2.32407 33.5317 2.40831 33.4471 2.49254 33.3413L2.57677 33.4259Z" fill="#FABC04"/>
</g>
<mask id="mask4_272_5141" style="mask-type:luminance" maskUnits="userSpaceOnUse" x="0" y="-1" width="53" height="68">
<path d="M0.0918579 -0.00683594H52.9277V66.182H0.0918579V-0.00683594Z" fill="white"/>
</mask>
<g mask="url(#mask4_272_5141)">
<path d="M17.2756 42.5248C17.1914 42.3766 17.2756 42.2708 17.3598 42.165L17.4441 42.2497L17.2756 42.5248Z" fill="#E1C025"/>
</g>
</svg>
