<svg width="47" height="48" viewBox="0 0 47 48" fill="none" xmlns="http://www.w3.org/2000/svg">
<g clip-path="url(#clip0_272_5290)">
<path d="M3.21608 2.06659L29.8094 0.108904C33.0759 -0.170537 33.9153 0.0178863 35.9691 1.50611L44.4581 7.467C45.8583 8.49215 46.3245 8.77159 46.3245 9.88776V42.5792C46.3245 44.6279 45.5779 45.8399 42.9651 46.0251L12.0832 47.8886C10.1223 47.9812 9.18836 47.7018 8.16148 46.3972L1.91045 38.295C0.789045 36.8036 0.324463 35.6874 0.324463 34.3828V5.32408C0.324463 3.64903 1.071 2.25182 3.21608 2.06659Z" fill="white"/>
<path d="M29.8094 0.108904L3.21608 2.06659C1.071 2.25182 0.324463 3.64903 0.324463 5.32408V34.3828C0.324463 35.6874 0.789045 36.8036 1.91045 38.295L8.16148 46.3972C9.18836 47.7018 10.1223 47.9812 12.0832 47.8886L42.9651 46.0251C45.5763 45.8399 46.3245 44.6279 46.3245 42.5792V9.88776C46.3245 8.82907 45.9047 8.52408 44.6696 7.62029C44.5985 7.56926 44.5275 7.51816 44.4565 7.467L35.9691 1.50611C33.9153 0.0178863 33.0759 -0.170537 29.8094 0.108904ZM12.7817 9.35283C10.2601 9.52209 9.68819 9.56041 8.25599 8.39953L4.61463 5.5125C4.24457 5.13885 4.4304 4.67258 5.36277 4.57997L30.9276 2.71809C33.0743 2.53126 34.1925 3.27697 35.0319 3.92847L39.4166 7.09494C39.604 7.18915 40.0702 7.74644 39.5095 7.74644L13.1085 9.33047L12.7817 9.35283ZM9.84198 42.2998V14.5472C9.84198 13.3353 10.2152 12.7764 11.3334 12.6822L41.6562 10.9129C42.6847 10.8203 43.1493 11.4718 43.1493 12.6822V40.2495C43.1493 41.4614 42.9619 42.4866 41.283 42.5792L12.2658 44.2559C10.5869 44.3485 9.84198 43.7912 9.84198 42.2998ZM38.4858 16.0355C38.6717 16.8738 38.4858 17.7121 37.6448 17.8079L36.2462 18.0842V38.5744C35.0319 39.2259 33.9137 39.598 32.9798 39.598C31.4867 39.598 31.1134 39.1317 29.9952 37.7361L20.8494 23.3936V37.2698L23.7426 37.9229C23.7426 37.9229 23.7426 39.5996 21.4085 39.5996L14.9732 39.9716C14.7858 39.598 14.9732 38.667 15.6252 38.4818L17.3057 38.0171V19.6698L14.9732 19.4814C14.7858 18.6431 15.252 17.4327 16.5592 17.3385L23.4638 16.8754L32.9798 31.4031V18.5504L30.5543 18.2726C30.3669 17.2458 31.1134 16.5001 32.0458 16.4091L38.4858 16.0355Z" fill="black"/>
</g>
<defs>
<clipPath id="clip0_272_5290">
<rect width="46" height="48" fill="white" transform="translate(0.324463)"/>
</clipPath>
</defs>
</svg>
