<svg width="49" height="48" viewBox="0 0 49 48" fill="none" xmlns="http://www.w3.org/2000/svg">
<path d="M4.82323 0.396764C4.92871 0.100969 5.24574 -0.0603515 5.54587 0.0209896L5.58861 0.0342722C5.58861 0.0342722 15.1268 3.63339 21.7802 6.14396C22.5457 6.01883 23.3058 5.95656 24.0536 5.96188C26.8793 5.98132 29.5479 6.611 32.224 8.18007L47.798 6.90027C47.9822 6.89214 48.1562 6.98442 48.2516 7.14102C48.3877 7.36426 48.3273 7.65098 48.1195 7.80261L48.0754 7.83135C47.8822 7.94308 43.0044 10.7631 38.3463 13.4562C38.5035 13.635 38.661 13.8178 38.8189 14.0044C43.2514 19.2505 45.9477 26.8414 47.2355 31.2306C47.9959 33.8227 47.5021 36.6184 45.8985 38.7992C43.0041 42.7313 36.8313 48.0843 24.7208 47.999C11.4994 47.9081 4.67029 41.379 1.38923 37.3663C-0.00890011 35.6426 -0.382174 33.3125 0.408334 31.2433L0.653772 30.6063C2.58999 25.6077 6.19699 16.9261 9.08628 13.698C10.8257 11.7569 12.8316 10.0809 14.9507 8.78999L5.00638 1.05409C4.81238 0.894843 4.73921 0.632313 4.82323 0.396764Z" fill="#FF4C46"/>
<path d="M24.3446 34.3775C24.3657 34.3234 24.4271 34.2967 24.4816 34.3178C26.5947 35.5219 29.1316 35.7436 31.421 34.9294L31.5528 34.8813C31.5937 34.8624 31.6422 34.8728 31.6717 34.9068C31.7028 34.9427 31.7037 34.9942 31.6768 35.0309L28.7786 38.1987C28.5943 38.3986 28.2833 38.4165 28.0769 38.2391C27.0053 37.325 25.2154 35.4153 24.3576 34.4776C24.3363 34.4486 24.3315 34.4109 24.3446 34.3775ZM28.3682 18.1541C35.863 12.9782 39.926 17.4711 42.2057 22.455C43.8527 26.047 44.4359 32.7718 39.0895 33.8024C34.9941 34.5951 31.2098 30.4767 28.411 26.6316C28.1237 26.2378 27.5692 26.1498 27.1725 26.435C27.0977 26.4887 27.032 26.5537 26.9774 26.6275L26.8634 26.7849C24.9476 29.4514 20.3791 36.7002 13.6183 34.8656C7.09448 33.0929 5.66106 25.8088 8.37418 20.7735C12.389 13.1809 18.254 10.7071 28.3682 18.1541ZM27.3029 28.5729C27.5614 28.3262 27.9656 28.3226 28.2283 28.5565L28.266 28.5929L31.8476 32.6439C31.8666 32.6655 31.883 32.6893 31.8963 32.7147C31.9889 32.8911 31.9199 33.1086 31.7422 33.2004C30.664 33.746 29.476 34.0437 28.2662 34.0713C26.6737 34.0583 25.0438 33.0092 24.3767 32.5269L24.3494 32.505C24.2097 32.3816 24.1887 32.1751 24.2949 32.0273L24.3195 31.9966L27.2626 28.6082L27.2674 28.6094C27.2788 28.5968 27.2907 28.5846 27.3029 28.5729Z" fill="white"/>
<path d="M37.066 22.6299L37.1072 22.6964C37.9739 24.0318 37.5858 25.8116 36.2405 26.6718C34.8952 27.532 33.1021 27.1468 32.2354 25.8115C31.3925 24.5126 31.7357 22.7903 32.9993 21.9051L33.0691 21.8577C34.3274 20.9637 36.0775 21.2515 36.9781 22.5005C37.0086 22.5428 37.038 22.586 37.066 22.6299ZM18.9487 21.0979C17.4406 21.6082 16.6907 23.1981 17.1401 24.6788C17.6542 26.1757 19.256 26.92 20.7477 26.474C22.2559 25.9637 22.9934 24.3536 22.5563 22.8931C22.5604 22.8835 22.5506 22.8559 22.5322 22.8228C22.0681 21.3817 20.5864 20.6201 19.1758 21.0181C19.111 21.0018 19.0299 21.0498 18.9487 21.0979Z" fill="#FF4C46"/>
</svg>
