<svg width="164" height="36" viewBox="0 0 164 36" fill="none" xmlns="http://www.w3.org/2000/svg">
<mask id="mask0_2_4583" style="mask-type:luminance" maskUnits="userSpaceOnUse" x="17" y="0" width="2" height="7">
<path d="M17.0753 0H18.387V6.90682H17.0753V0Z" fill="white"/>
</mask>
<g mask="url(#mask0_2_4583)">
<path d="M17.0753 0H18.387V6.90682H17.0753V0Z" fill="white"/>
</g>
<mask id="mask1_2_4583" style="mask-type:luminance" maskUnits="userSpaceOnUse" x="17" y="28" width="2" height="8">
<path d="M17.0753 28.5554H18.387V35.4622H17.0753V28.5554Z" fill="white"/>
</mask>
<g mask="url(#mask1_2_4583)">
<path d="M17.0753 28.5554H18.387V35.4622H17.0753V28.5554Z" fill="white"/>
</g>
<mask id="mask2_2_4583" style="mask-type:luminance" maskUnits="userSpaceOnUse" x="0" y="17" width="7" height="2">
<path d="M0 17.0753H6.90975V18.3869H0V17.0753Z" fill="white"/>
</mask>
<g mask="url(#mask2_2_4583)">
<path d="M0 18.3869V17.0753H6.90975V18.3869H0Z" fill="white"/>
</g>
<mask id="mask3_2_4583" style="mask-type:luminance" maskUnits="userSpaceOnUse" x="17" y="17" width="19" height="2">
<path d="M17.0783 17.0753H35.4652V18.3869H17.0783V17.0753Z" fill="white"/>
</mask>
<g mask="url(#mask3_2_4583)">
<path d="M17.0783 18.3869V17.0753H35.4652V18.3869H17.0783Z" fill="white"/>
</g>
<mask id="mask4_2_4583" style="mask-type:luminance" maskUnits="userSpaceOnUse" x="9" y="0" width="6" height="9">
<path d="M9.9313 0.866623H14.4285V8.36194H9.9313V0.866623Z" fill="white"/>
</mask>
<g mask="url(#mask4_2_4583)">
<mask id="mask5_2_4583" style="mask-type:luminance" maskUnits="userSpaceOnUse" x="10" y="1" width="5" height="8">
<path d="M10.1801 1.67474L11.3864 1.15944L14.0947 7.51582L12.8884 8.03112L10.1801 1.67474Z" fill="white"/>
</mask>
<g mask="url(#mask5_2_4583)">
<path d="M10.1801 1.67474L11.3864 1.15944L14.0947 7.51582L12.8884 8.03112L10.1801 1.67474Z" fill="white"/>
</g>
</g>
<mask id="mask6_2_4583" style="mask-type:luminance" maskUnits="userSpaceOnUse" x="21" y="27" width="5" height="8">
<path d="M21.1743 27.1003H25.6714V34.5956H21.1743V27.1003Z" fill="white"/>
</mask>
<g mask="url(#mask6_2_4583)">
<mask id="mask7_2_4583" style="mask-type:luminance" maskUnits="userSpaceOnUse" x="21" y="27" width="5" height="8">
<path d="M21.3704 27.9464L22.5767 27.4311L25.2849 33.7875L24.0787 34.3028L21.3704 27.9464Z" fill="white"/>
</mask>
<g mask="url(#mask7_2_4583)">
<path d="M21.3704 27.9464L22.5767 27.4311L25.2849 33.7875L24.0787 34.2999L21.3704 27.9464Z" fill="white"/>
</g>
</g>
<mask id="mask8_2_4583" style="mask-type:luminance" maskUnits="userSpaceOnUse" x="0" y="21" width="9" height="5">
<path d="M0.93692 21.104H8.43224V25.6012H0.93692V21.104Z" fill="white"/>
</mask>
<g mask="url(#mask8_2_4583)">
<mask id="mask9_2_4583" style="mask-type:luminance" maskUnits="userSpaceOnUse" x="1" y="21" width="8" height="5">
<path d="M1.67479 25.282L1.16241 24.0757L7.51879 21.3675L8.03117 22.5738L1.67479 25.282Z" fill="white"/>
</mask>
<g mask="url(#mask9_2_4583)">
<path d="M1.67479 25.282L1.16241 24.0757L7.51879 21.3675L8.03117 22.5738L1.67479 25.282Z" fill="white"/>
</g>
</g>
<mask id="mask10_2_4583" style="mask-type:luminance" maskUnits="userSpaceOnUse" x="27" y="9" width="8" height="6">
<path d="M27.1705 9.861H34.6658V14.3582H27.1705V9.861Z" fill="white"/>
</mask>
<g mask="url(#mask10_2_4583)">
<mask id="mask11_2_4583" style="mask-type:luminance" maskUnits="userSpaceOnUse" x="27" y="10" width="8" height="5">
<path d="M27.9464 14.0918L27.434 12.8855L33.7904 10.1772L34.3028 11.3835L27.9464 14.0918Z" fill="white"/>
</mask>
<g mask="url(#mask11_2_4583)">
<path d="M27.9464 14.0919L27.434 12.8857L33.7874 10.1803L34.3027 11.3837L27.9464 14.0919Z" fill="white"/>
</g>
</g>
<mask id="mask12_2_4583" style="mask-type:luminance" maskUnits="userSpaceOnUse" x="4" y="4" width="7" height="7">
<path d="M4.6846 4.61426H10.6809V10.6105H4.6846V4.61426Z" fill="white"/>
</mask>
<g mask="url(#mask12_2_4583)">
<mask id="mask13_2_4583" style="mask-type:luminance" maskUnits="userSpaceOnUse" x="4" y="4" width="7" height="7">
<path d="M4.73148 5.65658L5.65668 4.72845L10.5433 9.61504L9.61514 10.5402L4.73148 5.65658Z" fill="white"/>
</mask>
<g mask="url(#mask13_2_4583)">
<path d="M4.73148 5.65658L5.65668 4.72845L10.5433 9.61504L9.61514 10.5402L4.73148 5.65658Z" fill="white"/>
</g>
</g>
<mask id="mask14_2_4583" style="mask-type:luminance" maskUnits="userSpaceOnUse" x="24" y="24" width="7" height="7">
<path d="M24.9219 24.8517H30.9182V30.8479H24.9219V24.8517Z" fill="white"/>
</mask>
<g mask="url(#mask14_2_4583)">
<mask id="mask15_2_4583" style="mask-type:luminance" maskUnits="userSpaceOnUse" x="24" y="24" width="7" height="7">
<path d="M24.9219 25.8471L25.8501 24.9219L30.7337 29.8056L29.8056 30.7337L24.9219 25.8471Z" fill="white"/>
</mask>
<g mask="url(#mask15_2_4583)">
<path d="M24.9219 25.8471L25.8501 24.9219L30.7337 29.8056L29.8056 30.7337L24.9219 25.8471Z" fill="white"/>
</g>
</g>
<mask id="mask16_2_4583" style="mask-type:luminance" maskUnits="userSpaceOnUse" x="4" y="24" width="7" height="7">
<path d="M4.6846 24.8517H10.6809V30.8479H4.6846V24.8517Z" fill="white"/>
</mask>
<g mask="url(#mask16_2_4583)">
<mask id="mask17_2_4583" style="mask-type:luminance" maskUnits="userSpaceOnUse" x="4" y="24" width="7" height="7">
<path d="M5.65668 30.7308L4.73148 29.8056L9.61514 24.919L10.5433 25.8471L5.65668 30.7308Z" fill="white"/>
</mask>
<g mask="url(#mask17_2_4583)">
<path d="M5.65668 30.7308L4.73148 29.8056L9.61514 24.919L10.5433 25.8471L5.65668 30.7308Z" fill="white"/>
</g>
</g>
<mask id="mask18_2_4583" style="mask-type:luminance" maskUnits="userSpaceOnUse" x="24" y="4" width="7" height="7">
<path d="M24.9219 4.61426H30.9182V10.6105H24.9219V4.61426Z" fill="white"/>
</mask>
<g mask="url(#mask18_2_4583)">
<mask id="mask19_2_4583" style="mask-type:luminance" maskUnits="userSpaceOnUse" x="24" y="4" width="7" height="7">
<path d="M25.8501 10.5402L24.9219 9.61211L29.8056 4.72845L30.7337 5.65658L25.8501 10.5402Z" fill="white"/>
</mask>
<g mask="url(#mask19_2_4583)">
<path d="M25.8501 10.5402L24.9219 9.61211L29.8056 4.72845L30.7337 5.65658L25.8501 10.5402Z" fill="white"/>
</g>
</g>
<mask id="mask20_2_4583" style="mask-type:luminance" maskUnits="userSpaceOnUse" x="0" y="9" width="9" height="6">
<path d="M0.93692 9.861H8.43224V14.3582H0.93692V9.861Z" fill="white"/>
</mask>
<g mask="url(#mask20_2_4583)">
<mask id="mask21_2_4583" style="mask-type:luminance" maskUnits="userSpaceOnUse" x="1" y="10" width="7" height="5">
<path d="M1.03943 11.7173L1.52838 10.4993L7.93746 13.0817L7.44851 14.2967L1.03943 11.7173Z" fill="white"/>
</mask>
<g mask="url(#mask21_2_4583)">
<path d="M1.03943 11.7173L1.52838 10.4993L7.93746 13.0817L7.44558 14.2967L1.03943 11.7173Z" fill="white"/>
</g>
</g>
<mask id="mask22_2_4583" style="mask-type:luminance" maskUnits="userSpaceOnUse" x="27" y="21" width="8" height="5">
<path d="M27.1705 21.104H34.6658V25.6012H27.1705V21.104Z" fill="white"/>
</mask>
<g mask="url(#mask22_2_4583)">
<mask id="mask23_2_4583" style="mask-type:luminance" maskUnits="userSpaceOnUse" x="27" y="21" width="8" height="4">
<path d="M27.5277 22.3805L28.0167 21.1655L34.4258 23.7449L33.9368 24.96L27.5277 22.3805Z" fill="white"/>
</mask>
<g mask="url(#mask23_2_4583)">
<path d="M27.5277 22.3805L28.0167 21.1655L34.4258 23.7449L33.9368 24.96L27.5277 22.3805Z" fill="white"/>
</g>
</g>
<mask id="mask24_2_4583" style="mask-type:luminance" maskUnits="userSpaceOnUse" x="9" y="27" width="6" height="8">
<path d="M9.9313 27.1003H14.4285V34.5956H9.9313V27.1003Z" fill="white"/>
</mask>
<g mask="url(#mask24_2_4583)">
<mask id="mask25_2_4583" style="mask-type:luminance" maskUnits="userSpaceOnUse" x="10" y="27" width="5" height="8">
<path d="M11.7172 34.4228L10.5022 33.9339L13.0816 27.5248L14.2967 28.0167L11.7172 34.4228Z" fill="white"/>
</mask>
<g mask="url(#mask25_2_4583)">
<path d="M11.7172 34.4228L10.5022 33.9339L13.0816 27.5248L14.2967 28.0167L11.7172 34.4228Z" fill="white"/>
</g>
</g>
<mask id="mask26_2_4583" style="mask-type:luminance" maskUnits="userSpaceOnUse" x="20" y="0" width="6" height="9">
<path d="M20.4248 0.866623H25.6715V8.36194H20.4248V0.866623Z" fill="white"/>
</mask>
<g mask="url(#mask26_2_4583)">
<mask id="mask27_2_4583" style="mask-type:luminance" maskUnits="userSpaceOnUse" x="21" y="1" width="4" height="7">
<path d="M22.3835 7.9345L21.1655 7.44555L23.745 1.03647L24.963 1.52542L22.3835 7.9345Z" fill="white"/>
</mask>
<g mask="url(#mask27_2_4583)">
<path d="M22.3835 7.9345L21.1655 7.44555L23.745 1.03647L24.963 1.52542L22.3835 7.9345Z" fill="white"/>
</g>
</g>
<path d="M52.7856 27.9004H50.1271L42.9831 6.93696H45.8876L51.2163 23.0285L51.5208 24.2582H51.591L51.837 23.005L56.8729 6.93696H59.7539L64.7898 22.9816L65.0709 24.2582H65.1177L65.4457 22.9114L70.7626 6.93696H73.6437L66.5231 27.9004H63.8412L58.3251 10.7198L52.7856 27.9004Z" fill="white"/>
<path d="M90.2392 19.6556C90.2392 19.7902 90.2334 19.9308 90.2275 20.0772C90.2275 20.2265 90.2158 20.4461 90.1924 20.733H77.1575C77.2659 21.7812 77.5704 22.6888 78.071 23.4618C78.5775 24.2347 79.21 24.8291 79.9683 25.2419C80.7324 25.6577 81.5493 25.8626 82.416 25.8626C83.47 25.8626 84.3718 25.6372 85.1213 25.1834C85.8708 24.7237 86.4213 24.0532 86.7726 23.169H89.7473C89.519 23.8892 89.1852 24.5626 88.7401 25.1951C88.2951 25.8216 87.7564 26.3662 87.124 26.8347C86.4915 27.2973 85.7801 27.6603 84.9925 27.9238C84.202 28.1961 83.3646 28.3337 82.4745 28.3337C81.3327 28.3337 80.2757 28.1229 79.3007 27.7013C78.3316 27.2738 77.4855 26.6795 76.7593 25.9212C76.0391 25.157 75.4769 24.2757 75.0729 23.2744C74.6747 22.2672 74.4756 21.1898 74.4756 20.042C74.4756 18.8885 74.6747 17.811 75.0729 16.8097C75.4769 15.8113 76.0391 14.9329 76.7593 14.1746C77.4855 13.4104 78.3316 12.8131 79.3007 12.3828C80.2757 11.9553 81.3327 11.7386 82.4745 11.7386C83.6047 11.7386 84.6441 11.9494 85.5898 12.371C86.5413 12.7927 87.364 13.3753 88.0609 14.116C88.7548 14.8509 89.2906 15.6942 89.6653 16.6457C90.046 17.5914 90.2392 18.5957 90.2392 19.6556ZM77.2746 18.3907H87.5339C87.487 17.8374 87.3231 17.3103 87.042 16.8097C86.7609 16.3032 86.3861 15.8581 85.9177 15.4746C85.4551 15.0852 84.9251 14.7807 84.3249 14.5611C83.7306 14.3444 83.0982 14.2332 82.4277 14.2332C81.6459 14.2332 80.8993 14.3942 80.1908 14.7133C79.4793 15.0266 78.8674 15.4921 78.3521 16.107C77.8427 16.7248 77.4855 17.486 77.2746 18.3907Z" fill="white"/>
<path d="M98.2989 28.3454C97.198 28.3454 96.2318 28.1961 95.4061 27.9004C94.5863 27.6135 93.9012 27.2211 93.3566 26.7293C92.8179 26.2315 92.411 25.6635 92.1387 25.0311C91.8634 24.3987 91.7288 23.7487 91.7288 23.0753L94.2819 23.087C94.2965 23.6579 94.4605 24.182 94.7737 24.6563C95.0841 25.1248 95.5379 25.4996 96.1323 25.7806C96.7325 26.0558 97.4615 26.1905 98.3223 26.1905C99.5169 26.1905 100.413 25.9563 101.016 25.4878C101.625 25.0194 101.929 24.3928 101.929 23.6023C101.929 23.0167 101.768 22.5571 101.449 22.2204C101.136 21.8866 100.682 21.6289 100.091 21.4474C99.4964 21.2688 98.7908 21.1136 97.971 20.9789C97.2361 20.8706 96.5363 20.7154 95.8746 20.5105C95.2188 20.3085 94.6332 20.0362 94.1179 19.6907C93.6026 19.3393 93.1956 18.8914 92.8999 18.3439C92.61 17.7993 92.4666 17.1317 92.4666 16.3412C92.4666 15.4834 92.6715 14.7075 93.0873 14.0106C93.5089 13.3167 94.1355 12.7663 94.9728 12.3593C95.8073 11.9465 96.8467 11.7386 98.0881 11.7386C99.3061 11.7386 100.363 11.9436 101.262 12.3476C102.167 12.7546 102.869 13.3138 103.37 14.0224C103.876 14.725 104.131 15.5331 104.131 16.4466H101.531C101.49 15.6971 101.171 15.0969 100.571 14.6431C99.9678 14.1834 99.1421 13.9521 98.0881 13.9521C97.4147 13.9521 96.8584 14.0575 96.4133 14.2683C95.9683 14.4791 95.6345 14.766 95.4179 15.1232C95.1983 15.4746 95.0899 15.861 95.0899 16.2827C95.0899 16.7745 95.1983 17.1815 95.4179 17.5006C95.6345 17.8227 96.0181 18.0833 96.5656 18.2853C97.1189 18.4815 97.8831 18.6601 98.861 18.824C99.5783 18.9353 100.281 19.0788 100.969 19.2574C101.663 19.4389 102.284 19.6965 102.831 20.0303C103.376 20.3582 103.809 20.8003 104.131 21.3537C104.459 21.91 104.623 22.6127 104.623 23.4618C104.623 24.5334 104.357 25.4351 103.827 26.1671C103.294 26.8932 102.553 27.4407 101.601 27.8067C100.647 28.1639 99.5461 28.3454 98.2989 28.3454Z" fill="white"/>
<path d="M121.005 27.9004H117.995L113.146 20.2294L110.195 23.4735V27.9004H107.548V6.19915H110.195V20.5457L116.952 12.1837H120.197L115.09 18.4844L121.005 27.9004Z" fill="#1F48FF"/>
<path d="M129.373 28.3455C128.295 28.3455 127.294 28.1347 126.374 27.7131C125.452 27.2856 124.647 26.6912 123.962 25.9329C123.274 25.1687 122.735 24.2816 122.346 23.2744C121.962 22.2672 121.772 21.1898 121.772 20.0421C121.772 18.8885 121.962 17.811 122.346 16.8097C122.735 15.8113 123.274 14.9329 123.962 14.1746C124.647 13.4105 125.452 12.8161 126.374 12.3945C127.294 11.967 128.286 11.7504 129.349 11.7504C130.292 11.7504 131.17 11.9085 131.984 12.2188C132.795 12.5233 133.512 12.9625 134.139 13.5305C134.763 14.1014 135.246 14.7778 135.591 15.5566V12.1837H138.133V27.9004H135.591V24.551C135.246 25.3239 134.763 25.9973 134.139 26.5653C133.512 27.1363 132.795 27.5784 131.984 27.8887C131.17 28.1932 130.301 28.3455 129.373 28.3455ZM129.958 25.8626C130.722 25.8626 131.44 25.7192 132.113 25.4293C132.792 25.1336 133.381 24.7237 133.881 24.1996C134.388 23.6697 134.783 23.049 135.064 22.3375C135.351 21.629 135.498 20.8619 135.498 20.0421C135.498 19.231 135.351 18.4727 135.064 17.77C134.783 17.0674 134.385 16.4525 133.87 15.9196C133.36 15.3897 132.772 14.9769 132.101 14.6782C131.437 14.3825 130.725 14.2332 129.97 14.2332C129.197 14.2332 128.474 14.3737 127.803 14.6548C127.139 14.9359 126.55 15.3399 126.035 15.8611C125.525 16.3852 125.127 17.0029 124.84 17.7115C124.55 18.4142 124.407 19.193 124.407 20.0421C124.407 20.9175 124.55 21.7139 124.84 22.4312C125.136 23.1427 125.537 23.7546 126.046 24.2699C126.553 24.7793 127.141 25.1717 127.815 25.4527C128.494 25.728 129.209 25.8626 129.958 25.8626Z" fill="white"/>
<path d="M145.167 27.9004H142.521V6.17574H145.167V27.9004Z" fill="white"/>
<path d="M164 19.6556C164 19.7902 163.994 19.9308 163.988 20.0772C163.988 20.2265 163.977 20.4461 163.953 20.733H150.918C151.027 21.7812 151.331 22.6888 151.832 23.4618C152.338 24.2347 152.971 24.8291 153.729 25.2419C154.493 25.6577 155.31 25.8626 156.177 25.8626C157.231 25.8626 158.133 25.6372 158.882 25.1834C159.632 24.7237 160.182 24.0532 160.533 23.169H163.508C163.28 23.8892 162.946 24.5626 162.501 25.1951C162.056 25.8216 161.517 26.3662 160.885 26.8347C160.252 27.2973 159.541 27.6603 158.753 27.9238C157.963 28.1961 157.125 28.3337 156.235 28.3337C155.093 28.3337 154.036 28.1229 153.061 27.7013C152.092 27.2738 151.246 26.6795 150.52 25.9212C149.8 25.157 149.238 24.2757 148.834 23.2744C148.435 22.2672 148.236 21.1898 148.236 20.042C148.236 18.8885 148.435 17.811 148.834 16.8097C149.238 15.8113 149.8 14.9329 150.52 14.1746C151.246 13.4104 152.092 12.8131 153.061 12.3828C154.036 11.9553 155.093 11.7386 156.235 11.7386C157.365 11.7386 158.405 11.9494 159.351 12.371C160.302 12.7927 161.125 13.3753 161.822 14.116C162.516 14.8509 163.051 15.6942 163.426 16.6457C163.807 17.5914 164 18.5957 164 19.6556ZM151.035 18.3907H161.295C161.248 17.8374 161.084 17.3103 160.803 16.8097C160.522 16.3032 160.147 15.8581 159.678 15.4746C159.216 15.0852 158.686 14.7807 158.086 14.5611C157.491 14.3444 156.859 14.2332 156.188 14.2332C155.407 14.2332 154.66 14.3942 153.952 14.7133C153.24 15.0266 152.628 15.4921 152.113 16.107C151.603 16.7248 151.246 17.486 151.035 18.3907Z" fill="white"/>
</svg>
