<svg width="80" height="80" viewBox="0 0 80 80" fill="none" xmlns="http://www.w3.org/2000/svg">
<circle cx="40" cy="40" r="40" fill="#15131D"/>
<circle cx="40" cy="40" r="39.2188" stroke="white" stroke-opacity="0.15" stroke-width="1.5625"/>
<circle cx="40" cy="40" r="30" fill="white"/>
<path d="M50.975 40.7501C50.975 41.3106 50.6896 41.4014 49.9804 41.4014C49.2263 41.4014 49.0887 41.276 49.0083 40.7043C48.8596 39.2513 47.8762 38.0163 46.2295 37.8788C45.7037 37.8338 45.5774 37.6392 45.5774 36.9871C45.5774 36.3817 45.6691 36.0954 46.1378 36.0954C48.9971 36.1067 50.975 38.4046 50.975 40.7501ZM55.1385 40.7501C55.1385 36.3921 52.1884 31.7832 45.3716 31.7832H31.8304C31.5553 31.7832 31.3841 31.9207 31.3841 32.1724C31.3841 32.309 31.487 32.4353 31.5787 32.5036C32.0699 32.8928 32.8025 33.327 33.7625 33.8079C34.7009 34.2766 35.4325 34.5854 36.1642 34.8829C36.473 35.0083 36.588 35.1458 36.588 35.317C36.588 35.5575 36.4159 35.7062 36.0846 35.7062H25.3344C25.0135 35.7062 24.8647 35.9121 24.8647 36.1179C24.8647 36.2891 24.9218 36.4379 25.0706 36.5867C25.9398 37.5017 27.3348 38.6001 29.3603 39.8697C31.2096 41.0177 33.1181 42.0674 35.0779 43.0143C35.3754 43.1519 35.4671 43.3119 35.4671 43.4831C35.4559 43.6777 35.3071 43.8377 34.9638 43.8377H30.034C29.7599 43.8377 29.5999 43.9864 29.5999 44.2156C29.5999 44.341 29.7028 44.501 29.8403 44.6273C30.9603 45.6453 32.7566 46.7549 35.1471 47.772C38.3385 49.1333 41.5739 49.9454 45.2116 49.9454C52.108 49.9454 55.1385 44.7873 55.1385 40.7501ZM46.1378 47.189C42.6152 47.189 39.6643 44.3177 39.6643 40.7389C39.6643 37.2154 42.604 34.3795 46.1378 34.3795C49.7521 34.3795 52.588 37.2042 52.588 40.7389C52.5767 44.3186 49.7512 47.189 46.1378 47.189Z" fill="#FF642D"/>
</svg>
