<svg width="80" height="80" viewBox="0 0 80 80" fill="none" xmlns="http://www.w3.org/2000/svg">
<circle cx="40" cy="40" r="40" fill="#15131D"/>
<circle cx="40" cy="40" r="39.2188" stroke="white" stroke-opacity="0.15" stroke-width="1.5625"/>
<circle cx="40" cy="40" r="30" fill="white"/>
<g clip-path="url(#clip0_235_525)">
<path d="M38.497 28.3015L28.0628 32.708C27.4826 32.9531 27.4886 33.7942 28.0725 34.0304L38.5504 38.2711C39.471 38.6437 40.4963 38.6437 41.4168 38.2711L51.8948 34.0304C52.4785 33.7942 52.4847 32.9531 51.9043 32.708L41.4703 28.3015C40.5183 27.8995 39.4489 27.8995 38.497 28.3015Z" fill="#FFBF00"/>
<path d="M40.9131 40.587V51.1807C40.9131 51.6846 41.4109 52.0296 41.8698 51.8439L53.5454 47.2187C53.8119 47.1108 53.9867 46.848 53.9867 46.5555V35.9617C53.9867 35.4578 53.4889 35.1128 53.03 35.2985L41.3544 39.9237C41.088 40.0316 40.9131 40.2944 40.9131 40.587Z" fill="#26B5F8"/>
<path d="M38.1868 41.1336L34.7218 42.8411L34.3699 43.0146L27.0555 46.5916C26.5918 46.8199 26 46.475 26 45.9493V36.0062C26 35.816 26.0955 35.6518 26.2237 35.5282C26.2772 35.4734 26.3377 35.4284 26.4007 35.3927C26.5755 35.2857 26.8248 35.2571 27.0368 35.3427L38.1286 39.8279C38.6924 40.0562 38.7367 40.8625 38.1868 41.1336Z" fill="#ED3049"/>
<path d="M38.1868 41.1336L34.7217 42.8411L26.2236 35.5282C26.2771 35.4734 26.3377 35.4284 26.4006 35.3927C26.5755 35.2857 26.8248 35.2571 27.0367 35.3427L38.1285 39.8279C38.6923 40.0562 38.7366 40.8625 38.1868 41.1336Z" fill="black" fill-opacity="0.25"/>
</g>
<defs>
<clipPath id="clip0_235_525">
<rect width="28" height="24" fill="white" transform="translate(26 28)"/>
</clipPath>
</defs>
</svg>
