<svg width="40" height="40" viewBox="0 0 40 40" fill="none" xmlns="http://www.w3.org/2000/svg">
<rect x="0.5" y="0.5" width="39" height="39" rx="19.5" fill="#17102F"/>
<rect x="0.5" y="0.5" width="39" height="39" rx="19.5" stroke="#443883"/>
<g clip-path="url(#clip0_33_1432)">
<path d="M25.4558 14.7035C24.3733 14.2068 23.2124 13.8408 21.9987 13.6313C21.9766 13.6272 21.9545 13.6373 21.9431 13.6575C21.7938 13.9231 21.6284 14.2695 21.5126 14.5418C20.2072 14.3463 18.9084 14.3463 17.6297 14.5418C17.5139 14.2634 17.3425 13.9231 17.1926 13.6575C17.1812 13.638 17.1591 13.6279 17.137 13.6313C15.9239 13.8402 14.7631 14.2061 13.6799 14.7035C13.6705 14.7076 13.6625 14.7143 13.6571 14.7231C11.4552 18.0126 10.852 21.2214 11.1479 24.3903C11.1493 24.4058 11.158 24.4206 11.17 24.43C12.6228 25.4969 14.03 26.1446 15.4111 26.5739C15.4332 26.5806 15.4566 26.5726 15.4707 26.5543C15.7974 26.1082 16.0886 25.6378 16.3383 25.1431C16.3531 25.1141 16.339 25.0797 16.3089 25.0683C15.8469 24.8931 15.4071 24.6794 14.984 24.4368C14.9505 24.4173 14.9478 24.3694 14.9786 24.3465C15.0677 24.2797 15.1567 24.2103 15.2417 24.1402C15.2571 24.1274 15.2786 24.1247 15.2966 24.1328C18.0763 25.4019 21.0855 25.4019 23.8323 24.1328C23.8504 24.1241 23.8719 24.1268 23.8879 24.1396C23.9729 24.2097 24.062 24.2797 24.1517 24.3465C24.1825 24.3694 24.1805 24.4173 24.147 24.4368C23.7239 24.6841 23.284 24.8931 22.8214 25.0676C22.7913 25.0791 22.7779 25.1141 22.7927 25.1431C23.0477 25.6371 23.3389 26.1075 23.6596 26.5537C23.673 26.5726 23.6971 26.5806 23.7192 26.5739C25.107 26.1446 26.5142 25.4969 27.967 24.43C27.9797 24.4206 27.9877 24.4065 27.9891 24.391C28.3432 20.7273 27.3959 17.5449 25.4779 14.7237C25.4732 14.7143 25.4652 14.7076 25.4558 14.7035ZM16.7534 22.4607C15.9166 22.4607 15.227 21.6924 15.227 20.7489C15.227 19.8054 15.9032 19.0371 16.7534 19.0371C17.6103 19.0371 18.2932 19.8121 18.2798 20.7489C18.2798 21.6924 17.6036 22.4607 16.7534 22.4607ZM22.397 22.4607C21.5602 22.4607 20.8706 21.6924 20.8706 20.7489C20.8706 19.8054 21.5468 19.0371 22.397 19.0371C23.2539 19.0371 23.9368 19.8121 23.9234 20.7489C23.9234 21.6924 23.2539 22.4607 22.397 22.4607Z" fill="white"/>
</g>
<defs>
<clipPath id="clip0_33_1432">
<rect x="11" y="11" width="17.14" height="17.14" rx="6" fill="white"/>
</clipPath>
</defs>
</svg>
