<svg width="40" height="40" viewBox="0 0 40 40" fill="none" xmlns="http://www.w3.org/2000/svg">
<rect x="0.5" y="0.5" width="39" height="39" rx="19.5" fill="#17102F"/>
<rect x="0.5" y="0.5" width="39" height="39" rx="19.5" stroke="#443883"/>
<g clip-path="url(#clip0_33_1438)">
<path d="M19.9998 22.7147C21.4989 22.7147 22.7141 21.4995 22.7141 20.0004C22.7141 18.5014 21.4989 17.2861 19.9998 17.2861C18.5007 17.2861 17.2855 18.5014 17.2855 20.0004C17.2855 21.4995 18.5007 22.7147 19.9998 22.7147Z" fill="white"/>
<path d="M23.3918 11.8574H16.6061C13.9875 11.8574 11.8568 13.9888 11.8568 16.6081V23.3938C11.8568 26.0124 13.9882 28.1431 16.6075 28.1431H23.3932C26.0118 28.1431 28.1425 26.0117 28.1425 23.3925V16.6067C28.1425 13.9881 26.0111 11.8574 23.3918 11.8574ZM19.9997 24.0717C17.7543 24.0717 15.9282 22.2457 15.9282 20.0003C15.9282 17.7549 17.7543 15.9289 19.9997 15.9289C22.2451 15.9289 24.0711 17.7549 24.0711 20.0003C24.0711 22.2457 22.2451 24.0717 19.9997 24.0717ZM24.7497 15.9289C24.3751 15.9289 24.0711 15.6249 24.0711 15.2503C24.0711 14.8757 24.3751 14.5717 24.7497 14.5717C25.1242 14.5717 25.4282 14.8757 25.4282 15.2503C25.4282 15.6249 25.1242 15.9289 24.7497 15.9289Z" fill="white"/>
</g>
<defs>
<clipPath id="clip0_33_1438">
<rect width="17.1429" height="17.1429" fill="white" transform="translate(11.4286 11.4287)"/>
</clipPath>
</defs>
</svg>
