<svg width="40" height="40" viewBox="0 0 40 40" fill="none" xmlns="http://www.w3.org/2000/svg">
<rect x="0.5" y="0.5" width="39" height="39" rx="19.5" fill="#17102F"/>
<rect x="0.5" y="0.5" width="39" height="39" rx="19.5" stroke="#443883"/>
<g clip-path="url(#clip0_33_1434)">
<path d="M28.5713 14.6968C27.9284 14.9647 27.2856 15.179 26.5356 15.2326C27.2856 14.804 27.8213 14.1076 28.0892 13.304C27.3927 13.7326 26.6427 14.0004 25.8392 14.1611C25.1963 13.4647 24.2856 13.0361 23.3213 13.0361C21.3927 13.0361 19.7856 14.5897 19.7856 16.5718C19.7856 16.8397 19.8392 17.1076 19.8927 17.3754C16.9463 17.2147 14.3749 15.8218 12.607 13.679C12.2856 14.2147 12.1249 14.804 12.1249 15.4468C12.1249 16.679 12.7677 17.7504 13.6784 18.3933C13.0892 18.3933 12.5534 18.2326 12.0713 17.9647V18.0183C12.0713 19.7326 13.3034 21.1254 14.9106 21.4468C14.5892 21.5004 14.3213 21.554 13.9999 21.554C13.7856 21.554 13.5713 21.554 13.357 21.5004C13.7856 22.8933 15.1249 23.9111 16.6249 23.9647C15.4463 24.929 13.8927 25.4647 12.232 25.4647C11.9642 25.4647 11.6427 25.4647 11.3749 25.4111C12.982 26.3754 14.857 26.9647 16.8392 26.9647C23.3213 26.9647 26.857 21.6076 26.857 16.9468C26.857 16.7861 26.857 16.6254 26.857 16.5183C27.4999 15.9826 28.0892 15.3933 28.5713 14.6968Z" fill="white"/>
</g>
<defs>
<clipPath id="clip0_33_1434">
<rect width="17.1429" height="17.1429" fill="white" transform="translate(11.4286 11.4287)"/>
</clipPath>
</defs>
</svg>
