<svg width="64" height="64" viewBox="0 0 64 64" fill="none" xmlns="http://www.w3.org/2000/svg">
<circle cx="32" cy="32" r="32" fill="#1F48FF"/>
<path d="M25.0918 39.782L25.5458 38.891H25.5458L25.0918 39.782ZM24.218 38.908L23.327 39.362H23.327L24.218 38.908ZM39.7822 38.908L38.8912 38.454L39.7822 38.908ZM38.9078 39.782L38.4538 38.891L38.9078 39.782ZM38.9078 24.218L39.3618 23.327V23.327L38.9078 24.218ZM39.7822 25.092L38.8912 25.546L39.7822 25.092ZM25.0918 24.218L25.5458 25.109L25.0918 24.218ZM24.218 25.092L25.109 25.546L24.218 25.092ZM36 36V35C35.4477 35 35 35.4477 35 36H36ZM36.002 36L37.0017 36.0234C37.008 35.7542 36.9055 35.4938 36.7173 35.3012C36.5292 35.1086 36.2713 35 36.002 35V36ZM36.002 36.002L35.978 37.0017C36.2433 37.0081 36.5002 36.9087 36.6921 36.7256C36.8841 36.5425 36.9955 36.2906 37.0017 36.0254L36.002 36.002ZM36 36.002H35C35 36.5449 35.4333 36.9887 35.9761 37.0017L36 36.002ZM32 36V35C31.4477 35 31 35.4477 31 36H32ZM32.002 36L33.0017 36.0234C33.008 35.7542 32.9055 35.4938 32.7173 35.3012C32.5292 35.1086 32.2713 35 32.002 35V36ZM32.002 36.002L31.978 37.0017C32.2433 37.0081 32.5002 36.9087 32.6921 36.7256C32.8841 36.5425 32.9955 36.2906 33.0017 36.0254L32.002 36.002ZM32 36.002H31C31 36.5449 31.4333 36.9887 31.9761 37.0017L32 36.002ZM28 36V35C27.4477 35 27 35.4477 27 36H28ZM28.002 36L29.0017 36.0234C29.008 35.7542 28.9055 35.4938 28.7173 35.3012C28.5292 35.1086 28.2713 35 28.002 35V36ZM28.002 36.002L27.978 37.0017C28.2433 37.0081 28.5002 36.9087 28.6921 36.7256C28.8841 36.5425 28.9955 36.2906 29.0017 36.0254L28.002 36.002ZM28 36.002H27C27 36.5449 27.4333 36.9887 27.9761 37.0017L28 36.002ZM36.002 32H37.002C37.002 31.4477 36.5542 31 36.002 31V32ZM36.002 32.002L35.978 33.0017C36.2473 33.0082 36.5078 32.9057 36.7006 32.7175C36.8933 32.5293 37.002 32.2714 37.002 32.002H36.002ZM36 32.002H35C35 32.5449 35.4333 32.9887 35.9761 33.0017L36 32.002ZM36 32V31C35.4477 31 35 31.4477 35 32H36ZM32 32V31C31.4477 31 31 31.4477 31 32H32ZM32.002 32L33.0017 32.0234C33.008 31.7542 32.9055 31.4938 32.7173 31.3012C32.5292 31.1086 32.2713 31 32.002 31V32ZM32.002 32.002L31.978 33.0017C32.2433 33.0081 32.5002 32.9087 32.6921 32.7256C32.8841 32.5425 32.9955 32.2906 33.0017 32.0254L32.002 32.002ZM32 32.002H31C31 32.5449 31.4333 32.9887 31.9761 33.0017L32 32.002ZM28 32V31C27.4477 31 27 31.4477 27 32H28ZM28.002 32L29.0017 32.0234C29.008 31.7542 28.9055 31.4938 28.7173 31.3012C28.5292 31.1086 28.2713 31 28.002 31V32ZM28.002 32.002L27.978 33.0017C28.2433 33.0081 28.5002 32.9087 28.6921 32.7256C28.8841 32.5425 28.9955 32.2906 29.0017 32.0254L28.002 32.002ZM28 32.002H27C27 32.5449 27.4333 32.9887 27.9761 33.0017L28 32.002ZM24 27C23.4477 27 23 27.4477 23 28C23 28.5523 23.4477 29 24 29V28V27ZM40 29C40.5523 29 41 28.5523 41 28C41 27.4477 40.5523 27 40 27V28V29ZM37 22C37 21.4477 36.5523 21 36 21C35.4477 21 35 21.4477 35 22H36H37ZM35 24C35 24.5523 35.4477 25 36 25C36.5523 25 37 24.5523 37 24H36H35ZM29 22C29 21.4477 28.5523 21 28 21C27.4477 21 27 21.4477 27 22H28H29ZM27 24C27 24.5523 27.4477 25 28 25C28.5523 25 29 24.5523 29 24H28H27ZM27.2002 24V25H36.8002V24V23H27.2002V24ZM40 27.2H39V36.8H40H41V27.2H40ZM36.8002 40V39H27.2002V40V41H36.8002V40ZM24 36.8H25V27.2H24H23V36.8H24ZM27.2002 40V39C26.6237 39 26.2513 38.9992 25.9678 38.9761C25.696 38.9538 25.5952 38.9161 25.5458 38.891L25.0918 39.782L24.6378 40.673C25.0162 40.8658 25.4096 40.9371 25.805 40.9694C26.1887 41.0008 26.6566 41 27.2002 41V40ZM24 36.8H23C23 37.3435 22.9992 37.8113 23.0306 38.195C23.0629 38.5904 23.1342 38.9836 23.327 39.362L24.218 38.908L25.109 38.454C25.0838 38.4046 25.0461 38.3039 25.0239 38.0322C25.0008 37.7488 25 37.3765 25 36.8H24ZM25.0918 39.782L25.5458 38.891C25.3578 38.7952 25.2049 38.6424 25.109 38.454L24.218 38.908L23.327 39.362C23.6145 39.9264 24.0732 40.3853 24.6378 40.673L25.0918 39.782ZM40 36.8H39C39 37.3766 38.9993 37.7489 38.9762 38.0323C38.954 38.3041 38.9163 38.4047 38.8912 38.454L39.7822 38.908L40.6732 39.362C40.8661 38.9835 40.9373 38.5902 40.9696 38.1949C41.0008 37.8112 41 37.3434 41 36.8H40ZM36.8002 40V41C37.3438 41 37.8115 41.0008 38.1951 40.9694C38.5904 40.9371 38.9835 40.8657 39.3618 40.673L38.9078 39.782L38.4538 38.891C38.4043 38.9162 38.3036 38.9539 38.0321 38.9761C37.7489 38.9992 37.3767 39 36.8002 39V40ZM39.7822 38.908L38.8912 38.454C38.7956 38.6417 38.6425 38.7948 38.4538 38.891L38.9078 39.782L39.3618 40.673C39.9257 40.3856 40.3853 39.927 40.6732 39.362L39.7822 38.908ZM36.8002 24V25C37.3768 25 37.7489 25.0008 38.0321 25.0239C38.3036 25.0461 38.4043 25.0838 38.4538 25.109L38.9078 24.218L39.3618 23.327C38.9835 23.1342 38.5904 23.0629 38.1951 23.0306C37.8115 22.9992 37.3437 23 36.8002 23V24ZM40 27.2H41C41 26.6565 41.0008 26.1887 40.9695 25.8051C40.9373 25.4098 40.8661 25.0165 40.6732 24.6381L39.7822 25.092L38.8912 25.546C38.9164 25.5954 38.954 25.696 38.9762 25.9677C38.9993 26.2511 39 26.6233 39 27.2H40ZM38.9078 24.218L38.4538 25.109C38.6424 25.2051 38.7956 25.3583 38.8912 25.546L39.7822 25.092L40.6732 24.6381C40.3854 24.0732 39.9259 23.6144 39.3618 23.327L38.9078 24.218ZM27.2002 24V23C26.6566 23 26.1887 22.9992 25.805 23.0306C25.4096 23.0629 25.0162 23.1342 24.6378 23.327L25.0918 24.218L25.5458 25.109C25.5952 25.0838 25.6959 25.0461 25.9678 25.0239C26.2513 25.0008 26.6237 25 27.2002 25V24ZM24 27.2H25C25 26.6234 25.0008 26.2511 25.0239 25.9678C25.0461 25.6962 25.0838 25.5955 25.109 25.546L24.218 25.092L23.327 24.6381C23.1342 25.0164 23.0629 25.4096 23.0306 25.805C22.9992 26.1886 23 26.6564 23 27.2H24ZM25.0918 24.218L24.6378 23.327C24.0731 23.6147 23.6145 24.0738 23.327 24.6381L24.218 25.092L25.109 25.546C25.205 25.3576 25.3579 25.2047 25.5458 25.109L25.0918 24.218ZM36 36V37H36.002V36V35H36V36ZM36.002 36L35.0023 35.9766L35.0022 35.9786L36.002 36.002L37.0017 36.0254L37.0017 36.0234L36.002 36ZM36.002 36.002L36.0259 35.0023L36.0239 35.0022L36 36.002L35.9761 37.0017L35.978 37.0017L36.002 36.002ZM36 36.002H37V36H36H35V36.002H36ZM32 36V37H32.002V36V35H32V36ZM32.002 36L31.0023 35.9766L31.0022 35.9786L32.002 36.002L33.0017 36.0254L33.0017 36.0234L32.002 36ZM32.002 36.002L32.0259 35.0023L32.0239 35.0022L32 36.002L31.9761 37.0017L31.978 37.0017L32.002 36.002ZM32 36.002H33V36H32H31V36.002H32ZM28 36V37H28.002V36V35H28V36ZM28.002 36L27.0023 35.9766L27.0022 35.9786L28.002 36.002L29.0017 36.0254L29.0017 36.0234L28.002 36ZM28.002 36.002L28.0259 35.0023L28.0239 35.0022L28 36.002L27.9761 37.0017L27.978 37.0017L28.002 36.002ZM28 36.002H29V36H28H27V36.002H28ZM36.002 32H35.002V32.002H36.002H37.002V32H36.002ZM36.002 32.002L36.0259 31.0023L36.0239 31.0022L36 32.002L35.9761 33.0017L35.978 33.0017L36.002 32.002ZM36 32.002H37V32H36H35V32.002H36ZM36 32V33H36.002V32V31H36V32ZM32 32V33H32.002V32V31H32V32ZM32.002 32L31.0023 31.9766L31.0022 31.9786L32.002 32.002L33.0017 32.0254L33.0017 32.0234L32.002 32ZM32.002 32.002L32.0259 31.0023L32.0239 31.0022L32 32.002L31.9761 33.0017L31.978 33.0017L32.002 32.002ZM32 32.002H33V32H32H31V32.002H32ZM28 32V33H28.002V32V31H28V32ZM28.002 32L27.0023 31.9766L27.0022 31.9786L28.002 32.002L29.0017 32.0254L29.0017 32.0234L28.002 32ZM28.002 32.002L28.0259 31.0023L28.0239 31.0022L28 32.002L27.9761 33.0017L27.978 33.0017L28.002 32.002ZM28 32.002H29V32H28H27V32.002H28ZM24 28V29H40V28V27H24V28ZM36 22H35V24H36H37V22H36ZM28 22H27V24H28H29V22H28Z" fill="white"/>
</svg>
